<svg width="500" height="500" viewBox="0 0 500 500" fill="none" xmlns="http://www.w3.org/2000/svg">
<rect width="500" height="500" rx="100" fill="#2361EA"/>
<path d="M396.217 175.584C414.234 210.931 418.954 251.573 409.517 290.108C400.08 328.643 377.114 362.506 344.802 385.528C312.491 408.549 272.985 419.198 233.481 415.534C193.977 411.869 157.104 394.136 129.578 365.564" stroke="white" stroke-width="30" stroke-linecap="round"/>
<path d="M102.79 323.486C84.7737 288.139 80.054 247.496 89.4911 208.961C98.9283 170.426 121.894 136.563 154.205 113.542C186.516 90.52 226.022 79.8714 265.527 83.5357C305.031 87.2 341.904 104.933 369.43 133.505" stroke="white" stroke-width="30" stroke-linecap="round"/>
<path d="M260.999 276.538C257.9 277.571 253.765 278.014 248.747 278.014C245.203 278.014 241.659 277.717 238.117 277.127C228.521 275.651 219.22 272.255 212.431 267.826C211.986 267.826 211.84 267.826 211.692 267.826C211.544 267.826 211.396 267.974 211.249 268.271L201.062 290.267C200.914 290.562 201.062 291.004 201.358 291.152C209.626 296.614 223.207 300.749 237.233 302.076V319.498C237.233 319.94 237.527 320.235 237.969 320.235H261.295C261.738 320.235 262.032 319.94 262.032 319.498V301.634C284.473 297.944 298.054 285.542 298.054 268.271C298.054 246.126 280.339 240.073 261.295 236.826C259.523 236.529 257.605 236.235 255.833 235.938C248.451 234.757 242.104 233.872 238.117 231.658C235.461 230.182 234.131 228.41 234.131 225.901C234.131 223.39 235.461 221.324 238.117 219.7C241.365 217.78 246.385 216.747 253.028 216.747C255.979 216.747 258.49 216.895 260.999 217.19C268.824 218.077 276.206 220.585 283.144 224.424C283.292 224.572 283.586 224.572 283.734 224.424C283.883 224.424 284.031 224.275 284.177 223.981L294.364 202.133C294.51 201.836 294.364 201.394 294.068 201.246C286.245 196.671 274.434 193.423 261.738 192.242V177.774C261.738 177.331 261.444 177.035 260.999 177.035H237.821C237.379 177.035 237.084 177.331 237.084 177.774V193.717C215.973 197.85 203.425 210.252 203.425 227.229C203.425 249.522 220.698 255.575 237.675 258.526C240.626 258.968 243.431 259.413 246.237 259.855C251.847 260.74 257.161 261.479 260.999 262.66C265.428 264.136 267.348 266.056 267.348 269.007C267.348 272.7 265.282 275.06 260.999 276.538Z" fill="white"/>
<path d="M115.828 341.83C115.218 345.369 111.186 347.131 108.175 345.173L68.8616 319.614C65.524 317.444 65.9373 312.434 69.5853 310.84L116.858 290.188C120.506 288.594 124.463 291.695 123.787 295.618L115.828 341.83Z" fill="white"/>
<path d="M382.429 157.324C382.889 153.762 386.843 151.833 389.934 153.662L430.289 177.544C433.715 179.572 433.513 184.595 429.935 186.341L383.573 208.964C379.995 210.709 375.912 207.778 376.422 203.829L382.429 157.324Z" fill="white"/>
</svg>
